<?xml version="1.0" encoding="UTF-8" standalone="no"?>
<svg width="19px" height="18px" viewBox="0 0 19 18" version="1.1" xmlns="http://www.w3.org/2000/svg" xmlns:xlink="http://www.w3.org/1999/xlink">
    <!-- Generator: Sketch 3.8.3 (29802) - http://www.bohemiancoding.com/sketch -->
    <title>search</title>
    <desc>Created with Sketch.</desc>
    <defs></defs>
    <g id="Page-1" stroke="none" stroke-width="1" fill="none" fill-rule="evenodd">
        <g id="screen" transform="translate(-45.000000, -104.000000)">
            <g id="search" transform="translate(26.000000, 89.000000)">
                <g transform="translate(16.279070, 12.000000)" id="Shape">
                    <polygon transform="translate(12.209302, 12.000000) scale(1, -1) translate(-12.209302, -12.000000) " points="24.4186047 0 0 0 0 24 24.4186047 24"></polygon>
                    <path d="M15.7723837,9.491 L14.9645349,9.491 L14.6837209,9.765 C15.6757267,10.902 16.2790698,12.376 16.2790698,13.991 C16.2790698,17.581 13.318314,20.491 9.66569767,20.491 C6.0130814,20.491 3.05232558,17.581 3.05232558,13.991 C3.05232558,10.401 6.0130814,7.491 9.66569767,7.491 C11.3088663,7.491 12.8075581,8.083 13.9643895,9.057 L14.2452035,8.783 L14.2452035,7.991 L19.3303779,3 L20.8473837,4.491 L15.7723837,9.491 L15.7723837,9.491 Z M9.66569767,9.491 C7.13633721,9.491 5.0872093,11.505 5.0872093,13.991 C5.0872093,16.476 7.13633721,18.491 9.66569767,18.491 C12.1940407,18.491 14.244186,16.476 14.244186,13.991 C14.244186,11.505 12.1940407,9.491 9.66569767,9.491 L9.66569767,9.491 Z" fill="#000000" opacity="0.539999962" transform="translate(11.949855, 11.745500) scale(1, -1) translate(-11.949855, -11.745500) "></path>
                </g>
            </g>
        </g>
    </g>
</svg>