<?xml version="1.0" encoding="UTF-8" standalone="no"?>
<svg width="10px" height="10px" viewBox="0 0 10 10" version="1.1" xmlns="http://www.w3.org/2000/svg" xmlns:xlink="http://www.w3.org/1999/xlink">
    <!-- Generator: Sketch 3.8.3 (29802) - http://www.bohemiancoding.com/sketch -->
    <title>Shape</title>
    <desc>Created with Sketch.</desc>
    <defs></defs>
    <g id="Page-1" stroke="none" stroke-width="1" fill="none" fill-rule="evenodd">
        <g id="screen" transform="translate(-93.000000, -205.000000)" fill="#FFFFFF">
            <g id="list" transform="translate(26.000000, 145.000000)">
                <g id="row-active">
                    <g id="Group-3" transform="translate(65.000000, 15.000000)">
                        <g id="Group-2">
                            <g id="chip" transform="translate(0.000000, 43.000000)">
                                <g id="ic_alarm" transform="translate(2.727273, 2.187500)">
                                    <path d="M9.09090909,2.065 L7,0.37625 L6.41363636,1.045625 L8.50454545,2.734375 L9.09090909,2.065 L9.09090909,2.065 Z M2.67272727,1.045625 L2.09090909,0.37625 L4.4408921e-16,2.060625 L0.586363636,2.73 L2.67272727,1.045625 L2.67272727,1.045625 Z M4.77272727,3.0625 L4.09090909,3.0625 L4.09090909,5.6875 L6.25,6.934375 L6.59090909,6.39625 L4.77272727,5.359375 L4.77272727,3.0625 L4.77272727,3.0625 Z M4.54545455,1.3125 C2.28636364,1.3125 0.454545455,3.075625 0.454545455,5.25 C0.454545455,7.424375 2.28181818,9.1875 4.54545455,9.1875 C6.80454545,9.1875 8.63636364,7.424375 8.63636364,5.25 C8.63636364,3.075625 6.80454545,1.3125 4.54545455,1.3125 L4.54545455,1.3125 Z M4.54545455,8.3125 C2.78636364,8.3125 1.36363636,6.943125 1.36363636,5.25 C1.36363636,3.556875 2.78636364,2.1875 4.54545455,2.1875 C6.30454545,2.1875 7.72727273,3.556875 7.72727273,5.25 C7.72727273,6.943125 6.30454545,8.3125 4.54545455,8.3125 L4.54545455,8.3125 Z" id="Shape"></path>
                                </g>
                            </g>
                        </g>
                    </g>
                </g>
            </g>
        </g>
    </g>
</svg>