<?xml version="1.0" encoding="UTF-8" standalone="no"?>
<svg width="77px" height="76px" viewBox="0 0 77 76" version="1.1" xmlns="http://www.w3.org/2000/svg" xmlns:xlink="http://www.w3.org/1999/xlink">
    <!-- Generator: Sketch 3.8.3 (29802) - http://www.bohemiancoding.com/sketch -->
    <title>Shape</title>
    <desc>Created with Sketch.</desc>
    <defs></defs>
    <g id="Specifications" stroke="none" stroke-width="1" fill="white" fill-rule="evenodd">
        <g id="postcss-logo-brand-hero-+-PostCSS" transform="translate(-7.000000, 1.000000)" stroke-width="0.5" stroke="#4A4A4A">
            <g id="postcss-logo-brand-hero">
                <g id="PostCSS-+-Logo-Symbol" transform="translate(7.000000, 0.000000)">
                    <g id="Logo-Symbol">
                        <path d="M75.720843,32.225 C75.6698176,31.25 75.644305,30.275 75.5422544,29.3 C75.3636658,27.975 75.1850772,26.625 74.8789253,25.325 C74.6493114,24.25 74.2666216,23.225 73.8839318,22.2 C73.3991913,21 72.9144508,19.775 72.3021471,18.625 C71.3071536,16.775 70.0060081,15.125 68.8069133,13.4 C68.016021,12.3 66.9955148,11.4 66.2301351,10.275 C65.79642,9.625 65.1586036,9.075 64.5207872,8.575 C63.500281,7.775 62.4287494,7.05 61.3572179,6.35 C60.5408129,5.8 59.7244079,5.275 58.8569777,4.8 C58.168136,4.425 57.4282689,4.125 56.7139146,3.8 C55.8975096,3.425 55.1066173,2.975 54.1881617,2.8 C53.9585478,2.75 53.7544466,2.675 53.5248327,2.6 C52.9380416,2.4 52.3767632,2.175 51.7899721,2 C50.8970291,1.725 50.0295988,1.4 49.1111432,1.175 C48.2182003,0.95 47.2997447,0.8 46.3812891,0.675 C45.3607829,0.525 44.314764,0.475 43.2942578,0.375 C42.6309287,0.3 41.9675997,0.225 41.3297833,0.2 C40.3603024,0.15 39.3653088,0.15 38.3958279,0.125 C37.9110875,0.1 37.4008344,0.05 36.9160939,0.075 C36.1762269,0.1 35.4363599,0.175 34.6964929,0.275 C33.9821385,0.35 33.2677842,0.475 32.5789425,0.575 C31.7370248,0.675 30.8951072,0.725 30.0531896,0.825 C29.2622973,0.925 28.4458923,1.075 27.655,1.2 C27.3743607,1.25 27.0937215,1.35 26.8130823,1.4 C26.2007786,1.525 25.5629622,1.575 24.9506585,1.775 C23.8536143,2.1 22.7565701,2.475 21.6850386,2.875 C20.690045,3.275 19.7205641,3.7 18.7765958,4.2 C17.8071149,4.725 16.8886593,5.35 15.9702037,5.95 C15.1027734,6.525 14.2353432,7.125 13.3934255,7.775 C12.5770205,8.4 11.8116409,9.1 11.0717739,9.8 C10.6635714,10.2 10.3319069,10.675 9.94921703,11.125 C9.31140064,11.85 8.67358425,12.55 8.06128052,13.3 C7.55102741,13.925 7.09179961,14.575 6.60705916,15.225 C5.73962887,16.375 4.99976186,17.6 4.31092016,18.825 C4.03028095,19.325 3.77515439,19.825 3.52002784,20.325 C3.13733801,21.075 2.72913552,21.8 2.37195834,22.575 C2.11683179,23.1 1.91273054,23.675 1.75965461,24.25 C1.40247743,25.475 1.04530025,26.725 0.713635732,27.95 C0.407483866,29.05 0.330945899,30.2 0.305433244,31.325 C0.279920588,32.325 0.38197121,33.3 0.484021833,34.3 C0.509534488,34.55 0.356458555,34.85 0.662610421,35.05 C0.560559799,35.325 0.637097766,35.475 0.790173699,35.525 C0.61158511,35.8 0.866711665,35.975 0.764661043,36.225 C0.739148388,36.275 0.84119901,36.375 0.892224321,36.45 C0.892224321,36.525 0.866711665,36.625 0.892224321,36.7 C0.917736976,36.925 1.0197876,37.15 1.0197876,37.4 C1.0197876,37.575 1.17286353,37.775 1.22388884,37.95 C1.2494015,38.025 1.22388884,38.15 1.17286353,38.2 C1.0197876,38.375 1.04530025,38.525 1.27491415,38.625 C1.40247743,38.95 1.35145212,39.1 1.32593946,39.25 C1.37696478,39.475 1.30042681,39.55 1.32593946,39.6 C1.53004071,40 1.60657868,40.45 1.63209133,40.9 C1.63209133,41 1.68311664,41.1 1.73414195,41.225 C1.75965461,41.225 1.73414195,41.7 1.73414195,41.7 C1.86170523,41.625 1.96375585,41.6 2.09131913,41.55 C2.1678571,41.875 2.24439506,42.175 2.34644569,42.45 C2.47400896,42.65 2.47400896,42.75 2.42298365,42.775 C2.52503427,43.225 2.57605959,43.65 2.75464817,44.075 C2.75464817,43.6 2.70362286,43.125 2.6270849,42.675 C2.98426207,42.8 3.29041394,42.925 3.49451518,42.925 C3.52002784,42.85 3.54554049,42.75 3.57105315,42.7 C3.41797722,42.55 3.29041394,42.325 3.13733801,42.175 C3.18836332,42.375 3.13733801,42.45 3.13733801,42.525 C3.03528738,42.475 2.90772411,42.425 2.78016083,42.375 C2.88221145,42.25 2.98426207,42.125 3.13733801,41.975 C3.13733801,41.75 3.00977473,41.55 2.65259755,41.575 C2.80567348,41.525 2.95874942,41.45 3.13733801,41.4 C3.41797722,41.25 3.11182535,40.975 3.11182535,40.625 C3.13733801,40.2 2.88221145,39.775 2.80567348,39.325 C2.67811021,38.625 2.70362286,37.575 2.6270849,36.875 C2.47400896,36.75 2.34644569,37.075 2.32093303,37.1 C2.397471,37.7 2.47400896,38.3 2.52503427,38.9 C2.37195834,38.4 2.26990772,37.85 2.14234444,37.25 C2.11683179,37.425 2.09131913,37.5 2.09131913,37.6 C1.96375585,37.725 2.06580647,37.875 2.14234444,38.05 C1.96375585,37.975 1.75965461,38 1.75965461,38 L1.75965461,38.7 C1.50452805,38.45 1.42799009,38.25 1.30042681,38.075 C1.2494015,37.875 1.22388884,37.675 1.17286353,37.475 C1.22388884,37.35 1.17286353,37.275 1.17286353,37.2 C1.14735088,37.025 1.12183822,36.825 1.09632556,36.6 C1.12183822,36.575 1.07081291,36.2 1.07081291,36.2 C1.27491415,36.225 1.40247743,36.25 1.53004071,36.25 C1.27491415,35.925 1.45350274,35.725 1.55555336,35.525 C1.60657868,35.425 1.78516726,35.4 1.83619258,35.3 C2.04029382,34.925 2.37195834,34.625 2.37195834,34.15 C2.37195834,33.925 2.44849631,33.675 2.47400896,33.45 C2.52503427,33.025 2.57605959,32.6 2.60157224,32.175 C2.65259755,31.625 2.60157224,31.075 2.72913552,30.55 C2.93323676,29.675 3.18836332,28.8 3.46900253,27.925 C3.67310377,27.3 3.90271767,26.7 4.15784423,26.075 C4.54053406,25.1 4.89771124,24.125 5.38245169,23.2 C6.07129339,21.85 6.86218571,20.55 7.62756538,19.225 C8.11230583,18.4 8.62255894,17.625 9.15832471,16.825 C9.66857782,16.05 10.1788309,15.25 10.765622,14.525 C11.582027,13.5 12.4749699,12.55 13.4699635,11.7 C14.4904697,10.8 15.4599506,9.875 16.5569948,9.05 C17.9857035,7.975 19.4909502,7.025 21.0982475,6.2 C22.3993929,5.525 23.7515637,5 25.1037344,4.5 C25.9711647,4.175 26.9151329,4.025 27.8080759,3.75 C28.8285821,3.425 29.8490883,3.275 30.9206199,3.25 C31.6094616,3.225 32.2727906,3.15 32.9616323,3.075 C33.573936,3.025 34.1862398,2.975 34.8495688,2.9 C34.7730308,3 34.7475182,3.05 34.7220055,3.1 C34.4413663,3.5 34.1352145,3.9 33.8545753,4.3 C33.6249614,4.625 33.3698348,4.975 33.1402209,5.3 C32.7320184,5.825 32.2983033,6.35 31.9156134,6.9 C31.3288224,7.725 30.7930566,8.575 30.1807529,9.4 C29.5684491,10.2 28.9051201,10.95 28.2673037,11.725 C27.4253861,12.8 26.6344937,13.9 25.7925761,14.975 C25.0271964,16 24.2107915,16.975 23.4709245,18 C22.8075954,18.9 22.2208043,19.85 21.5829879,20.775 C20.6390197,22.15 19.6950514,23.5 18.7510832,24.875 C18.0112162,25.925 17.2713492,26.95 16.5059695,28 C16.4549442,28.075 16.3784062,28.1 16.3018683,28.15 C16.097767,28.475 16.097767,28.65 16.021229,28.8 C15.8171278,29.175 15.6130266,29.55 15.3834127,29.9 C15.2558494,30.1 15.0772608,30.275 14.9241849,30.475 C14.8986722,30.175 15.3323873,30.025 15.1282861,29.65 C15.0007228,29.85 14.8731595,30.025 14.7455963,30.225 L14.4394444,30.825 C14.541495,30.9 14.7200836,30.95 14.541495,31.1 C14.4649571,31.225 14.3884191,31.375 14.3118811,31.5 C14.4394444,31.425 14.5159824,31.35 14.5925203,31.25 C14.5925203,31.525 14.4394444,31.75 14.3118811,31.975 C14.2098305,32.175 13.9547039,32.325 13.7761154,32.475 C13.801628,32.5 13.9802166,32.575 14.0057293,32.6 C14.2353432,32.525 14.3118811,32.4 14.3373938,32.475 C14.4139317,32.375 14.4904697,32.3 14.5159824,32.225 C14.618033,31.975 14.7711089,31.775 15.0262355,31.675 C15.1282861,31.625 15.2048241,31.55 15.281362,31.475 C16.0467417,30.7 16.837634,29.95 17.5264757,29.125 C18.5980073,27.85 19.5674882,26.525 20.5879944,25.225 C21.0217095,24.675 21.5319626,24.125 21.9911904,23.6 C22.0677284,24.175 22.0167031,24.725 21.9911904,25.25 C21.9146525,26.175 21.8636272,27.1 21.7870892,28.05 C21.7615765,28.425 21.7870892,28.8 21.7615765,29.175 C21.7615765,29.275 21.6850386,29.35 21.6850386,29.45 C21.6850386,29.7 21.7615765,29.975 21.7615765,30.225 C21.6850386,31.15 21.5829879,32.05 21.50645,32.975 C21.4809373,33.175 21.5829879,33.375 21.6340133,33.55 C21.50645,34.9 21.7870892,36.325 21.5574753,37.75 C21.7360639,37.475 21.7870892,37.3 21.7870892,37.125 C21.8126018,36.975 21.7870892,36.825 21.7870892,36.65 L21.7870892,36.4 C21.8126018,35.95 21.9146525,35.475 21.8636272,35.025 C21.8126018,34.525 21.8126018,34.05 21.9146525,33.575 C21.9656778,33.375 21.8891398,33.125 22.0167031,32.875 L22.0167031,33.25 C21.9911904,34.675 22.0422157,36.1 21.8381145,37.525 C21.8126018,37.65 21.9146525,37.875 21.6340133,37.85 C21.4043994,38.3 21.6850386,38.625 21.429912,38.875 C21.3788867,38.925 21.4809373,39.15 21.50645,39.3 C21.4043994,39.6 21.4043994,39.6 21.5574753,39.625 C21.5829879,40.175 21.6340133,40.675 21.6595259,41.2 C22.0677284,40.25 21.8636272,39.275 22.0422157,38.3 C22.0677284,38.7 22.0932411,39.1 22.0677284,39.525 C22.0677284,40.175 22.0422157,40.8 22.0167031,41.45 C22.0167031,41.575 21.9911904,41.7 21.9656778,41.825 C21.8891398,42.175 21.8636272,42.525 21.7360639,42.85 C21.6340133,43.1 21.6850386,43.475 21.6850386,43.775 L21.6850386,44.725 C21.7870892,45.15 21.6595259,45.375 21.7360639,45.625 C21.6595259,45.875 21.6340133,45.95 21.6595259,46.025 L21.7360639,46.4 C22.246317,46.35 22.0167031,46.725 22.2208043,46.925 C22.0677284,47.125 22.1187537,47.2 22.1187537,47.3 C22.1187537,47.525 22.0932411,47.725 22.0677284,47.95 C22.0677284,48.525 22.0422157,49.1 22.0422157,49.65 C22.0422157,49.725 22.0677284,49.8 22.0677284,49.875 C22.0677284,49.925 22.0422157,50.575 22.0422157,50.575 C22.0932411,50.65 22.0422157,50.725 21.9656778,50.8 C21.9401651,50.8 21.8636272,47.625 21.8636272,47.625 L21.4809373,47.625 C21.429912,49.125 21.5574753,50.475 21.2768361,51.875 C20.9706842,51.9 20.8686336,51.95 20.5369691,51.95 C19.7460767,51.95 18.9551844,51.95 18.1642921,51.975 C17.2203239,51.975 16.3018683,52 15.3579,52 C14.8986722,52 14.4139317,52.05 13.9547039,52.05 C13.3424002,52.05 12.7045838,51.975 12.0922801,51.975 C11.1483118,51.975 10.2298562,52.05 9.28588799,52.075 C8.59704629,52.1 7.90820459,52.1 7.21936289,52.125 C6.76013509,52.15 6.30090729,52.175 5.84167949,52.225 C5.63757825,52.25 5.45898966,52.325 5.2038631,52.4 C5.12732514,52.4 4.94873655,52.375 4.79566062,52.4 C4.54053406,52.45 4.31092016,52.6 4.05579361,52.65 C3.67310377,52.725 3.57105315,52.825 3.62207846,53.2 L3.62207846,53.45 C3.59656581,53.5 4.18335688,53.375 4.18335688,53.375 C4.13233157,53.375 4.10681892,53.525 4.03028095,53.65 C4.23438219,53.575 4.36194547,53.525 4.48950875,53.475 C4.87219858,53.65 5.2038631,53.55 5.51001497,53.625 C6.50500853,53.875 7.52551476,53.975 8.54602098,54.075 C9.20935002,54.125 9.84716641,54.15 10.5104955,54.175 C11.4544637,54.225 12.398432,54.275 13.3424002,54.275 C14.1332925,54.275 14.8986722,54.2 15.6895645,54.2 C16.7866087,54.2 17.8836529,54.25 18.9806971,54.275 C19.210311,54.275 19.4654375,54.25 19.7205641,54.25 L21.5829879,54.25 C23.2413106,54.2 24.8996332,54.175 26.5579558,54.125 C27.501924,54.1 28.4714049,54.05 29.4153732,54.025 L32.3238159,53.95 C33.4463728,53.925 34.5689296,53.925 35.6659738,53.9 C36.5078914,53.9 37.3242964,53.875 38.166214,53.85 C39.1101823,53.825 40.0796632,53.75 41.0236315,53.7 C41.5338846,53.675 42.0441377,53.625 42.5543908,53.575 C43.1666945,53.525 43.8045109,53.45 44.4168146,53.425 C45.3352702,53.375 46.2792385,53.35 47.1976941,53.3 C48.3457636,53.225 49.4938331,53.125 50.6674152,53.1 C51.7389468,53.05 52.835991,53.075 53.9075225,53.05 C54.8514907,53.025 55.795459,52.975 56.7649399,52.95 L58.3722372,52.875 C-0.255845177,-0.5 59.4437687,52.85 59.9795345,52.8 C60.8979901,52.75 61.8164457,52.65 62.7349013,52.625 C63.3216924,52.6 63.9084835,52.625 64.4952745,52.6 C65.4392428,52.575 66.4087237,52.525 67.3526919,52.525 C67.7098691,52.525 68.092559,52.575 68.5517868,52.6 C68.3476855,52.775 68.2201222,52.875 68.0670463,53 C68.1690969,53.025 68.2711475,53.075 68.3731982,53.125 C68.2201222,53.225 68.092559,53.25 67.9649957,53.25 C67.9139704,53.375 67.8629451,53.425 67.8119197,53.675 L68.2711475,53.675 C68.092559,53.675 67.939483,53.9 67.7608944,54.05 C67.5567932,54 67.3782046,54.05 67.276154,54.325 C67.4547426,54.425 67.4292299,54.5 67.4037173,54.6 C67.0975654,54.7 66.8679515,54.8 66.9955148,55.125 C66.8934641,55.175 66.7659009,55.225 66.6383376,55.3 C66.5107743,55.5 66.2811604,55.55 66.3321857,55.825 C66.4342363,55.85 66.536287,55.9 66.6128249,55.925 C66.4852617,55.975 66.3576984,56.05 66.2301351,56.1 C65.7709073,56.375 65.9750085,56.5 66.0770592,56.625 C66.0005212,56.675 65.9239832,56.725 65.8474453,56.75 C65.8984706,56.975 65.9750085,57.025 66.0005212,57.025 C65.8984706,57.1 65.7709073,57.2 65.6178314,57.325 C65.5412934,57.55 65.4392428,57.65 65.3371922,57.8 C65.2351415,57.95 65.1841162,58.15 65.0565529,58.3 C64.5207872,58.875 64.1380974,59.55 63.4492557,60 C63.1941291,60.175 62.9645152,60.4 62.7349013,60.625 C62.2756735,61.05 61.867471,61.525 61.3827306,61.925 C60.7449142,62.45 60.0815851,62.925 59.3927434,63.4 C58.5508258,63.975 57.7089082,64.55 56.8669905,65.1 C56.4077627,65.4 55.8975096,65.625 55.4127692,65.9 C54.9280287,66.175 54.4688009,66.425 53.9840605,66.7 C53.6779086,66.9 53.3972694,67.175 53.0656049,67.325 C52.2236872,67.675 51.3307443,67.975 50.463314,68.3 C49.6213964,68.65 49.0090926,68.95 48.3712762,69.175 C47.7844852,69.375 47.1721814,69.525 46.5598777,69.65 C46.3557765,69.7 46.1261626,69.65 45.8965487,69.675 C45.4628335,69.75 45.0291184,69.85 44.5954032,69.9 C43.4728464,70.05 42.3502895,70.15 41.2277327,70.3 C40.5644037,70.375 39.9265873,70.5 39.2632582,70.575 C38.8040304,70.6 38.31929,70.55 37.8600622,70.55 C37.5283976,70.55 37.1712205,70.625 36.8395559,70.575 C36.3037902,70.5 35.7680244,70.375 35.2322586,70.275 C35.1046954,70.25 34.9261068,70.2 34.8240562,70.25 C34.6199549,70.35 34.4413663,70.2 34.2372651,70.25 C34.1097018,70.275 33.9821385,70.175 33.8545753,70.175 C33.7525246,70.15 33.6249614,70.2 33.4973981,70.175 C33.2167589,70.1 32.9616323,70 32.6554804,70.025 C32.3493286,70.05 32.0431767,69.9 31.7115122,69.825 C31.2522844,69.725 30.8185692,69.625 30.3593414,69.525 C30.1807529,69.475 30.0276769,69.4 29.8490883,69.3 C29.1857593,69.3 28.7520441,69.275 28.3438417,69.125 C27.9866645,69 27.655,68.825 27.2723101,68.875 C27.1702595,68.9 27.0937215,68.85 26.9916709,68.85 C26.9151329,68.75 26.838595,68.55 26.762057,68.55 C26.2518039,68.575 25.945652,68.15 25.5119369,68.025 C25.282323,67.95 25.1037344,67.7 24.8741205,67.625 C24.3128421,67.4 23.8536143,66.925 23.2157979,66.85 C23.0116967,66.825 22.8075954,66.725 22.5779815,66.65 C22.6545195,66.75 22.7055448,66.825 22.7820828,66.9 C22.0422157,66.55 21.353374,66.15 20.6645323,65.775 C20.5624817,65.75 20.4859438,65.65 20.4094058,65.6 L19.7205641,65.15 C19.3378743,65.225 19.1847983,65.075 19.0827477,65.025 C18.393906,64.55 17.6030137,64.25 16.9396846,63.725 C16.6590454,63.5 16.3273809,63.35 16.1232797,63.075 C15.7661025,62.65 15.3323873,62.35 14.8476469,62.1 C14.4649571,61.9 14.1077799,61.675 13.7506027,61.45 C13.5720141,61.325 13.3934255,61.175 13.3934255,60.9 C13.3934255,60.725 13.3168876,60.55 13.0872737,60.65 C12.985223,60.5 12.8831724,60.325 12.7556091,60.275 C12.4494573,60.15 12.245356,59.925 12.0157421,59.725 C11.7861282,59.525 11.6075396,59.25 11.3269004,59.15 C10.8166473,58.95 10.5104955,58.525 10.2043436,58.175 C9.48998923,57.35 8.85217284,56.45 8.1888438,55.575 C8.13781849,55.5 8.03576787,55.45 7.9592299,55.375 C8.06128052,55.65 8.1888438,55.875 8.31640708,56.125 C8.06128052,56.025 7.88269193,55.85 7.729616,55.675 C7.70410334,55.7 9.48998923,58.575 9.48998923,58.575 C9.64306516,58.8 9.77062844,59.025 9.92370437,59.25 C9.54101454,59.275 9.28588799,59.075 9.15832471,58.85 C8.92871081,58.45 8.67358425,58.2 8.16333114,58.25 C8.11230583,58.075 8.06128052,57.875 8.03576787,57.7 C7.93371724,57.7 7.85717928,57.7 7.67859069,57.675 C8.03576787,58.225 8.34191973,58.7 8.67358425,59.25 C8.54602098,59.175 8.46948301,59.125 8.4184577,59.1 C8.8776855,59.575 9.20935002,60.175 9.7961411,60.475 C9.92370437,61.05 10.5870334,61.325 10.7401094,61.875 C10.6125461,61.85 10.5104955,61.825 10.3829322,61.8 C10.1788309,61.55 9.94921703,61.3 9.71960313,61.025 C9.77062844,61.2 9.84716641,61.35 9.94921703,61.475 C10.2553689,61.85 10.5360081,62.225 10.8931853,62.55 C11.0207486,62.675 11.1993372,62.725 11.1993372,62.95 C11.4034384,63.05 11.4799764,63.075 11.5565143,63.075 C11.6075396,63.225 11.5310017,63.45 11.8371535,63.4 C12.0412548,63.775 12.245356,63.775 12.5259952,63.65 C12.8576598,63.975 13.0362483,64 13.2658622,63.8 C13.2658622,63.925 13.2913749,64.05 13.2913749,64.15 C13.3934255,64.1 13.3679129,64.025 13.3679129,63.9 C13.4954761,64 13.5720141,64.05 13.6230394,64.1 C13.878166,64.45 14.1077799,64.775 14.4649571,65.05 C14.9496975,65.45 15.3834127,65.875 15.8426405,66.25 C16.7355834,66.975 17.730577,67.575 18.7255705,68.125 C19.950178,68.8 21.1237601,69.525 22.3738803,70.175 C23.8791269,70.95 25.4864242,71.475 27.1447468,71.85 C27.7570506,71.975 28.3438417,72.1 28.9561454,72.25 C29.4919112,72.4 30.0276769,72.625 30.5634427,72.75 C31.3798477,72.925 32.2217653,73.075 33.0381703,73.225 C33.2167589,73.25 33.3953475,73.275 33.5994487,73.3 C33.8290626,73.35 34.1097018,73.25 34.1607271,73.325 C34.2882904,73.525 34.390341,73.425 34.5434169,73.4 C34.7220055,73.35 34.9261068,73.35 35.130208,73.35 C35.8445624,73.375 36.5334041,73.525 37.2477584,73.475 C37.4008344,73.475 37.6304483,73.35 37.7580115,73.6 C37.9876254,73.5 38.1151887,73.5 38.2172393,73.475 C38.242752,73.7 38.2172393,73.7 38.166214,73.725 C38.1151887,73.75 38.0386508,73.775 37.9366001,73.85 C38.8550557,74.025 39.722486,74.05 40.4878657,73.85 C41.8145238,73.95 42.9625933,73.8 44.0596375,73.425 C44.1616881,73.55 44.238226,73.725 44.391302,73.475 C44.4423273,73.4 44.5698906,73.375 44.6719412,73.35 C44.9015551,73.3 45.1821943,73.2 45.3862955,73.275 C45.6159094,73.35 45.6924474,73.15 45.871036,73.15 C46.1771879,73.15 46.4578271,73.125 46.7384663,73.075 C46.8915422,73.05 47.0446182,72.975 47.2232067,72.925 C47.0191055,72.825 46.8150043,72.8 46.6619283,72.8 C46.9680802,72.65 47.2487194,72.525 47.5293586,72.4 C47.4783333,72.475 47.427308,72.575 47.3252574,72.575 L47.6824345,72.575 C47.6058966,72.575 47.503846,72.8 47.3762827,72.95 C48.2947383,72.725 49.1366559,72.525 49.9530609,72.325 C49.6724217,71.8 50.2592127,71.975 50.463314,71.675 C50.2081874,71.75 49.9530609,71.825 49.6979343,71.875 C50.5653646,71.45 51.4583076,71.075 52.3257378,70.7 C52.1981746,70.85 52.0450986,70.925 51.8154847,71.05 C51.9685607,71.075 52.0706113,71.075 52.1471493,71.1 C52.5553517,71.225 52.4533011,70.85 52.5808644,70.625 C53.0656049,70.625 53.2697061,70.55 53.49932,70.475 C53.7544466,70.4 54.0095731,70.325 54.2646997,70.225 C54.6729022,70.05 55.055592,69.825 55.4637945,69.625 C55.5403324,69.6 55.6678957,69.625 55.7699463,69.625 C56.0505856,69.45 56.1526362,69.3 56.2291741,69.325 C56.5863513,69.375 56.8414779,69.25 56.9435285,68.925 C57.1221171,68.8 57.2496804,68.7 57.3772436,68.625 C57.9385221,68.325 58.4742878,68.025 59.0355662,67.725 C59.2396675,67.725 59.3417181,67.725 59.3927434,67.7 C59.7244079,67.55 60.0305598,67.375 60.3367117,67.2 C60.2601737,67.175 60.0815851,67.075 60.0815851,67.075 C60.3367117,67.025 60.4132496,67 60.5663256,66.95 C61.1786293,66.25 62.0205469,65.775 62.6583633,65.225 C62.9390025,65.2 62.9390025,65.125 62.9390025,65.075 C63.0410532,64.95 63.1431038,64.8 63.2706671,64.7 C63.8319455,64.2 64.4442492,63.775 64.9545023,63.25 C65.6943693,62.525 66.4087237,61.775 67.0720527,61 C67.6843565,60.3 68.2966602,59.6 68.8069133,58.825 C69.5212677,57.75 70.1335714,56.65 70.7713878,55.525 C71.2306156,54.725 71.6388181,53.925 72.0980459,53.125 C72.1490712,53.05 72.2511218,52.95 72.3276598,52.95 C73.0165015,52.875 73.7053432,52.825 74.3686722,52.75 C74.5217481,52.725 74.7003367,52.625 74.8534127,52.55 C74.7768747,52.425 74.7258494,52.275 74.6493114,52.15 C74.5472608,52 74.3941849,51.875 74.2921342,51.725 C74.1900836,51.6 74.1135457,51.45 74.0370077,51.3 C73.9604697,51.175 73.8839318,51.075 73.8073938,50.95 C73.6543179,50.675 73.5012419,50.4 73.3736786,50.1 C73.348166,50.025 73.2971407,49.9 73.3226533,49.825 C73.7818811,48.85 73.9604697,47.8 74.3941849,46.825 C74.8279,45.825 74.9554633,44.7 75.1595645,43.625 C75.3381531,42.6 75.4402037,41.575 75.567767,40.55 C75.644305,39.825 75.7463556,39.125 75.7718683,38.4 C75.9249442,37.25 75.8739189,36.175 75.8484062,35.1 C75.8228936,34.15 75.7718683,33.175 75.720843,32.225 Z M11.7095903,63 C11.5310017,62.8 11.3779257,62.575 11.1993372,62.375 L11.2758751,62.3 C11.5565143,62.6 11.8371535,62.9 12.1177927,63.225 C11.9647168,63.15 11.7861282,63.1 11.7095903,63 L11.7095903,63 Z M12.1177927,63.225 C12.1943307,63.2 12.2708687,63.2 12.3474066,63.175 C12.4239446,63.3 12.4749699,63.45 12.5515079,63.6 C12.1943307,63.575 12.0157421,63.425 12.1177927,63.225 L12.1177927,63.225 Z M38.6509545,73.55 L38.6509545,73.475 C39.1356949,73.425 39.5949227,73.375 40.0796632,73.325 L40.0796632,73.4 C39.5949227,73.475 39.1356949,73.525 38.6509545,73.55 L38.6509545,73.55 Z M45.0801437,72.9 C44.7229665,72.975 44.3402767,73.025 43.9830995,73.075 C43.8555362,73.1 43.7024603,73.225 43.651435,73 C43.6004097,73.025 43.5493843,73.025 43.498359,73.05 C43.6259223,73.425 43.9320742,73.125 44.1872007,73.275 C43.6259223,73.35 43.0901565,73.4 42.5543908,73.475 L42.5543908,73.425 C42.7074667,73.4 42.8860553,73.375 43.0391312,73.35 L43.0391312,73.275 C42.7840047,73.25 42.5288781,73.225 42.2737516,73.225 C42.1972136,73.225 42.095163,73.325 42.018625,73.35 C41.9165744,73.375 41.8145238,73.4 41.6869605,73.4 C41.2532454,73.425 40.8195302,73.425 40.4113277,73.45 C40.3858151,73.45 40.3347898,73.425 40.3092771,73.425 L40.3092771,73.35 C42.018625,73.125 43.7024603,72.9 45.4118082,72.675 C45.4373209,72.725 45.4373209,72.775 45.4628335,72.825 C45.3097576,72.825 45.207707,72.875 45.0801437,72.9 L45.0801437,72.9 Z M45.4628335,72.65 C46.0496246,72.575 46.5853904,72.525 47.1466688,72.45 C45.9730866,72.775 45.5903968,72.825 45.4628335,72.65 L45.4628335,72.65 Z M23.2413106,22.175 C24.0577155,21.075 24.8996332,19.975 25.7160381,18.85 C25.9711647,18.525 26.1752659,18.175 26.4303925,17.85 C26.5069305,17.75 26.6089811,17.7 26.7365444,17.6 L26.7110317,17.55 C26.8130823,17.425 26.9151329,17.325 26.9661583,17.225 C27.0937215,17.025 27.1702595,16.8 27.2723101,16.575 C27.2978228,16.525 27.3743607,16.475 27.3743607,16.475 C27.7315379,16.65 27.7315379,16.275 27.8591012,16.15 C28.0887151,15.9 28.318329,15.625 28.5224302,15.375 C28.6755062,15.175 28.8285821,15 28.9561454,14.775 C28.981658,14.7 28.9051201,14.575 28.8796074,14.475 L28.8030695,14.475 C28.8796074,14.425 28.9561454,14.35 29.0326834,14.3 C29.058196,14.3 29.058196,14.3 29.0837087,14.275 C29.2367846,14.05 29.3898605,13.825 29.5429365,13.625 C29.8490883,13.225 30.1807529,12.825 30.53793,12.475 C30.4869047,12.6 30.4358794,12.725 30.3848541,12.825 C30.4103668,12.825 30.4103668,12.85 30.4358794,12.85 C30.7420313,12.45 31.0736958,12.075 31.3798477,11.675 C31.354335,11.65 31.3288224,11.625 31.3033097,11.625 C31.1757464,11.75 31.0736958,11.875 30.9461325,12 C30.9206199,11.975 30.8951072,11.95 30.8695946,11.95 C31.1247211,11.625 31.3798477,11.3 31.6349742,10.925 C31.6859995,11 31.7370248,11.1 31.8390755,11.3 C31.9411261,11.05 32.0431767,10.875 32.1197147,10.7 C32.0431767,10.775 31.9411261,10.85 31.8645881,10.925 L31.7880502,10.85 L32.247278,10.175 C32.7320184,9.5 33.2167589,8.8 33.7014993,8.125 C33.8800879,7.875 34.1097018,7.675 34.2627777,7.425 C34.7475182,6.475 35.5128979,5.725 36.0996889,4.85 C36.2272522,4.675 36.4058408,4.525 36.5589167,4.375 C36.68648,4.225 36.7885306,4.275 36.8905813,4.4 C37.579423,5.25 38.2682647,6.125 38.9571064,6.975 C39.4673595,7.6 39.9776126,8.2 40.462353,8.85 C41.0491441,9.65 41.6104225,10.45 42.1972136,11.25 C42.8605426,12.175 43.5238717,13.1 44.1616881,14.05 C45.131169,15.45 46.0496246,16.85 47.0191055,18.25 C47.7334599,19.275 48.4478142,20.275 49.1366559,21.3 L47.8355105,21.3 C46.6364157,21.275 45.4118082,21.175 44.2127134,21.225 C42.5799034,21.3 40.9215808,21.475 39.2887709,21.6 C37.2222458,21.775 35.130208,21.8 33.0636829,21.8 C32.3238159,21.8 31.5839489,21.9 30.8440819,21.95 C29.951139,22 29.0837087,22.05 28.1907657,22.075 C27.1447468,22.125 26.1242406,22.15 25.0782218,22.175 C24.4914307,22.2 23.8791269,22.175 23.2413106,22.175 L23.2413106,22.175 Z M52.5043264,33.675 L52.5043264,33.9 C52.4788138,33.9 52.4533011,33.925 52.4022758,33.925 C52.3002252,33.575 52.1981746,33.2 52.0706113,32.85 C51.8154847,32.125 51.5348455,31.4 51.0756177,30.75 C50.5653646,30.05 50.1061368,29.325 49.5958837,28.6 C49.4683204,28.425 49.2897318,28.275 49.1366559,28.125 C48.6008901,27.55 48.0651244,26.95 47.3762827,26.525 C46.3557765,25.9 45.3097576,25.375 44.1872007,24.925 C43.8810489,24.8 43.6004097,24.65 43.2942578,24.475 L43.9065615,24.475 L48.2692256,24.4 C49.2131939,24.375 50.1316495,24.375 51.0756177,24.325 C51.3052316,24.325 51.4327949,24.4 51.5603582,24.6 C51.7899721,24.975 52.019586,25.35 52.2747125,25.725 C52.3002252,25.775 52.3512505,25.85 52.3512505,25.925 C52.3512505,26.475 52.3512505,27.05 52.3767632,27.6 C52.4022758,28.175 52.4533011,28.725 52.4788138,29.3 C52.4788138,29.875 52.4277885,30.475 52.4533011,31.075 C52.4788138,31.925 52.5043264,32.8 52.5043264,33.675 L52.5043264,33.675 Z M25.0527091,25.3 C26.2518039,25.25 27.3998734,25.175 28.5734556,25.125 C29.4919112,25.075 30.4358794,25.05 31.354335,25 C31.7370248,24.975 32.094202,24.95 32.4768919,25 C32.0686894,25.2 31.6604869,25.4 31.3033097,25.65 C30.8440819,25.95 30.4103668,26.35 29.951139,26.675 C29.4919112,27 29.0837087,27.4 28.7010188,27.825 C28.2162784,28.4 27.6805126,28.9 27.1702595,29.45 C26.8130823,29.85 26.4048798,30.225 26.098728,30.65 C25.6650128,31.2 25.282323,31.8 24.8741205,32.425 C25.0016838,30.05 25.1547597,27.7 25.0527091,25.3 L25.0527091,25.3 Z M41.7124731,49.35 C40.8960682,49.55 40.0541505,49.775 39.2122329,49.875 C38.4978786,49.975 37.7580115,49.95 37.0181445,49.95 C36.3548155,49.95 35.7169991,49.925 35.0536701,49.875 C34.313803,49.8 33.573936,49.725 32.8595817,49.4 C32.247278,49.125 31.6094616,48.875 30.9971578,48.575 C30.3848541,48.275 29.7725504,47.925 29.3133226,47.375 C28.981658,46.975 28.5224302,46.65 28.1142278,46.3 C28.1907657,46.6 28.3693543,46.85 28.6499935,47.025 C28.5224302,47.175 28.3438417,47.1 28.0887151,46.7 C28.0121771,46.75 27.9356392,46.775 27.8846139,46.8 C27.9611518,46.625 28.0376898,46.45 28.1142278,46.3 C28.0121771,46.1 27.8846139,45.875 27.7825632,45.675 C27.578462,45.35 27.3743607,45 27.1957722,44.675 C27.1447468,44.6 27.1447468,44.525 27.0937215,44.45 C26.9661583,44.3 26.838595,44.15 26.7365444,44 C26.5324431,43.7 26.3538545,43.375 26.098728,43.075 C26.098728,43.15 26.1242406,43.225 26.1242406,43.325 C26.098728,43.325 26.0732153,43.35 26.0732153,43.35 L25.5374496,42.075 C25.5119369,42.075 25.5119369,42.075 25.4864242,42.1 L25.945652,43.75 C25.9201394,43.75 25.8946267,43.775 25.8691141,43.775 C25.7925761,43.675 25.7160381,43.575 25.6650128,43.45 C25.6139875,43.25 25.4609116,43.25 25.3333483,43.325 C25.2568103,43.375 25.205785,43.55 25.2312977,43.625 C25.4098863,44.05 25.6139875,44.475 25.8180888,44.9 C25.8691141,45.05 25.9201394,45.175 25.9966774,45.325 C26.02219,45.375 26.098728,45.425 26.098728,45.5 C26.2007786,45.7 26.2773166,45.9 26.4048798,46.075 C26.6344937,46.375 26.8896203,46.675 27.1192342,46.975 C27.3488481,47.275 27.5529493,47.6 27.7570506,47.9 C27.7825632,47.95 27.8591012,47.95 27.8846139,47.975 C28.0121771,48.35 28.4458923,48.625 28.7520441,48.475 C28.8285821,49.05 29.4663985,49.25 29.7215251,49.8 C29.4153732,49.675 29.1857593,49.575 28.981658,49.475 C28.9561454,49.5 28.9561454,49.525 28.9306327,49.575 C29.2367846,49.725 29.5429365,49.875 29.8235757,50.05 C30.0787022,50.2 30.3338288,50.35 30.5634427,50.525 C30.8695946,50.8 31.2267717,50.95 31.6604869,51.05 C31.6349742,50.975 31.6094616,50.95 31.6094616,50.95 C32.3238159,51.275 33.0636829,51.625 33.6249614,51.9 C30.9716452,51.95 28.1397404,52 25.205785,52.05 C25.205785,51.575 25.1802724,51.125 25.1802724,50.65 C25.1802724,50.45 25.2312977,50.275 25.205785,50.075 C25.1292471,48.925 25.1292471,47.775 24.9761711,46.65 C24.8230952,45.45 24.8230952,44.275 24.8486079,43.075 C24.8741205,42.425 24.8230952,41.75 24.7975825,41.1 C24.7975825,40.225 24.7975825,39.375 24.8230952,38.5 C24.8230952,38.375 24.8741205,38.275 24.9251458,38.15 L25.0016838,38.15 C25.0271964,38.2 25.0016838,38.275 25.0527091,38.3 C25.1292471,38.375 25.2568103,38.5 25.3078357,38.475 C25.4609116,38.375 25.6905255,38.275 25.7415508,38.125 C25.8691141,37.825 25.9201394,37.5 25.9201394,37.2 C25.9201394,36.975 26.02219,36.825 26.1242406,36.675 C26.1752659,36.6 26.2007786,36.525 26.2518039,36.425 C26.1497533,36.35 26.0477027,36.3 25.9201394,36.2 C26.02219,35.925 25.9966774,35.6 26.3793672,35.45 C26.4303925,35.425 26.4303925,35.3 26.4559051,35.225 C26.4814178,35.025 26.5069305,34.8 26.5324431,34.6 C26.5834684,34.675 26.6089811,34.7 26.6600064,34.75 C26.685519,34.7 26.7110317,34.675 26.7110317,34.675 C26.7110317,34.575 26.685519,34.375 26.7110317,34.375 C27.0171836,34.325 26.8896203,34 27.0426962,33.85 C27.0682089,33.825 27.0171836,33.75 27.0171836,33.7 C27.0171836,33.65 27.0171836,33.575 27.0426962,33.575 C27.3998734,33.5 27.3488481,33.125 27.578462,32.95 C27.655,32.9 27.6805126,32.825 27.7825632,32.7 C27.9866645,33.05 27.6294873,33.225 27.6039746,33.475 C28.0376898,33.225 28.1652531,32.625 27.9101265,32.45 C28.0121771,32.375 28.1142278,32.275 28.1907657,32.175 C28.4714049,31.875 28.7775568,31.6 29.0326834,31.3 C29.2112719,31.075 29.3133226,30.8 29.4919112,30.575 C29.5939618,30.45 29.798063,30.35 29.951139,30.275 C30.4103668,30.025 30.8440819,29.75 31.1247211,29.325 C31.1757464,29.275 31.2522844,29.225 31.3288224,29.175 C31.4053603,29.125 31.5584363,29.125 31.5839489,29.05 C31.6094616,29 31.5329236,28.875 31.4818983,28.8 C31.5839489,28.75 31.6859995,28.65 31.8901008,28.55 C31.8135628,28.7 31.7880502,28.8 31.7370248,28.9 L31.8645881,29.025 C32.094202,28.85 32.4513792,28.65 32.6809931,28.5 C32.6809931,28.475 32.5534298,28.375 32.5534298,28.375 C32.4003539,28.45 32.17074,28.575 31.9411261,28.675 C31.9921514,28.6 31.9921514,28.55 32.0176641,28.525 C32.3748412,28.3 32.7320184,28.075 33.1147082,27.9 C34.0076512,27.5 34.9005941,27.1 35.7935371,26.725 C35.946613,26.65 36.1507142,26.7 36.3293028,26.7 C36.4058408,26.7 36.4568661,26.7 36.5334041,26.675 C36.9416066,26.55 37.3498091,26.425 37.7580115,26.325 C37.9366001,26.275 38.1407014,26.25 38.31929,26.25 C39.0846696,26.275 39.8500493,26.275 40.615429,26.325 C40.9470935,26.35 41.2532454,26.425 41.5593972,26.525 C41.942087,26.65 42.3502895,26.825 42.7074667,27 C43.1411819,27.225 43.5493843,27.475 43.9575868,27.75 C44.6974538,28.225 45.3862955,28.75 46.1261626,29.175 C46.8405169,29.6 47.4017953,30.175 47.8610231,30.825 C48.4223016,31.6 49.0601179,32.3 49.3152445,33.25 L49.6979343,34.9 C49.7744723,35.2 49.9530609,35.5 49.8765229,35.85 C49.7489596,36.475 49.646909,37.125 49.5448584,37.75 C49.4938331,38 49.4428078,38.25 49.4683204,38.5 C49.5193457,39.275 49.2131939,39.95 48.907042,40.65 C48.8049914,40.875 48.6519155,41.1 48.5243522,41.35 C48.5498648,41.375 48.7029408,41.45 48.7284534,41.45 L48.9580673,41 C48.98358,41 48.98358,41 49.0090926,41.025 C48.8815294,41.375 48.7794787,41.75 48.6519155,42.1 C48.3457636,42.875 48.0396117,43.675 47.6569219,44.425 C47.4528206,44.85 47.0956435,45.2 46.8405169,45.6 C46.5853904,45.95 46.3812891,46.325 46.1261626,46.65 C45.8965487,46.925 45.6669348,47.2 45.3607829,47.4 C44.6719412,47.9 43.9575868,48.4 43.2177198,48.8 C42.758492,49.075 42.2227263,49.225 41.7124731,49.35 L41.7124731,49.35 Z M28.1142278,48.025 L28.0887151,48.05 C28.0376898,48.025 27.9611518,48 27.9101265,47.95 L27.2978228,47.05 C27.2467975,46.975 27.2212848,46.9 27.2467975,46.8 C27.5274367,47.225 27.8080759,47.625 28.1142278,48.025 L28.1142278,48.025 Z M43.9830995,51.45 C45.131169,50.975 46.0751372,50.3 46.9425675,49.525 C47.0701308,49.4 47.1976941,49.275 47.35077,49.175 C48.4223016,48.525 49.2131939,47.625 49.9275482,46.625 C50.7439532,45.475 51.279719,44.175 51.943048,42.95 C51.9940733,42.85 52.0450986,42.75 52.0961239,42.675 C52.0450986,45.525 52.3767632,48.325 52.759453,51.15 C49.8765229,51.25 46.9425675,51.35 43.9830995,51.45 L43.9830995,51.45 Z M69.8529322,50.7 C69.8274195,50.75 69.7763942,50.8 69.7508816,50.85 C69.7253689,50.8 69.7253689,50.725 69.6998563,50.625 C69.5467803,51.025 69.2151158,50.825 68.9855019,50.825 C67.6078185,50.85 66.2046224,50.85 64.826939,50.85 C63.500281,50.85 62.1481102,50.85 60.8214521,50.875 C60.387737,50.875 59.9285092,50.975 59.494794,51 C58.4487752,51.05 57.4027563,51.075 56.3567374,51.1 C56.2801995,51.1 56.2036615,50.975 56.0760982,50.875 C56.0505856,50.925 55.9995602,51 55.9230223,51.1 C55.8975096,51.05 55.8464843,51 55.795459,50.925 C55.7699463,51 55.7444337,51.075 55.718921,51.125 L55.6423831,51.125 C55.5913578,50.775 55.4893071,50.45 55.4893071,50.1 C55.4893071,49.35 55.5658451,48.6 55.5913578,47.85 C55.6168704,47.5 55.5913578,47.175 55.5913578,46.85 C55.6934084,46.925 55.7699463,46.975 55.871997,47.05 C55.9230223,46.95 55.9740476,46.875 56.0250729,46.8 C56.0250729,46.8 55.9740476,46.775 55.9230223,46.725 C55.9740476,46.7 56.0250729,46.65 56.0250729,46.625 C56.0505856,46.55 56.1016109,46.475 56.1016109,46.425 C56.1016109,46.25 56.0505856,46.1 56.0250729,45.95 C56.0505856,45.95 56.0760982,45.95 56.1016109,45.925 L56.2546868,46.675 L56.3312248,46.675 C56.2291741,46.5 56.5608387,46.35 56.2801995,46.15 C56.2546868,46.125 56.3057121,45.975 56.3057121,45.9 C56.2291741,45.75 56.1781488,45.6 56.1016109,45.4 C56.1271235,45.375 56.2036615,45.35 56.2801995,45.325 C56.1781488,45.275 56.1016109,45.225 56.0250729,45.2 C56.2801995,44.975 56.2801995,44.85 56.0505856,44.6 C56.1016109,44.575 56.1526362,44.575 56.1526362,44.55 C56.1526362,44.325 56.1526362,44.1 56.1016109,43.875 C56.0505856,43.625 56.1781488,43.325 55.795459,43.175 C55.8209717,43.25 55.8464843,43.3 55.8975096,43.375 C55.8975096,43.375 55.8209717,43.4 55.7444337,43.45 C55.4127692,43.15 55.6168704,42.75 55.5403324,42.3 C55.718921,42.35 55.8464843,42.4 55.9740476,42.45 C55.9230223,42.275 55.795459,42.075 55.718921,41.85 L55.6168704,41.85 L55.6168704,40.2 C55.6168704,40.225 55.795459,40.225 55.8975096,40.25 C55.8975096,40.225 55.9230223,40.2 55.9230223,40.175 C55.8464843,40.075 55.7444337,39.975 55.6423831,39.85 L55.6934084,39.8 C55.4893071,39.55 55.5913578,39.2 55.5913578,39.125 L55.5913578,37.375 C55.8464843,37.625 55.4637945,37.95 55.8464843,38.1 L55.8464843,37.85 L55.8209717,37.85 C55.795459,37.475 55.795459,37.1 55.7699463,36.725 L55.718921,36.725 C55.6934084,36.775 55.6934084,36.8 55.6678957,36.85 L55.6168704,36.85 C55.6678957,34.875 55.718921,32.9 55.7699463,30.875 C56.0250729,31.2 56.3057121,31.5 56.4843007,31.825 C57.0710918,32.875 57.8364714,33.775 58.5508258,34.725 C59.1631295,35.55 59.7244079,36.45 60.2856864,37.3 C60.9745281,38.325 61.6378571,39.35 62.3266988,40.375 C62.8369519,41.15 63.3727177,41.925 63.9084835,42.675 C64.3932239,43.35 64.903477,44 65.4137301,44.65 C65.8474453,45.225 66.3066731,45.8 66.7403882,46.375 C67.2506413,47.075 67.7608944,47.775 68.2711475,48.45 C68.5262741,48.8 68.8069133,49.15 69.0875525,49.5 C69.2406285,49.7 69.4702424,49.85 69.6233183,49.975 C69.5978056,49.975 69.572293,49.975 69.5212677,49.95 C69.5978056,50.05 69.6488309,50.125 69.6998563,50.175 C69.9804955,50.325 70.0060081,50.475 69.8529322,50.7 L69.8529322,50.7 Z M71.1540776,44.45 L71.1540776,44.275 C71.1540776,44.325 71.1795903,44.4 71.1540776,44.45 L71.1540776,44.45 Z M72.0215079,33.425 C71.9959952,33.425 71.8429193,33.275 71.8174067,33.25 C71.791894,33.325 71.8174067,33.4 71.7663814,33.5 C71.7408687,33.425 71.5622801,33.45 71.5622801,33.375 C71.5367675,33.725 71.715356,34.075 71.6898434,34.425 C71.7663814,34.375 72.0725332,34.35 72.1490712,34.275 C72.1745838,34.3 72.2256091,34.325 72.2511218,34.325 C71.7408687,34.7 71.868432,35.075 72.0980459,35.5 C72.1490712,35.6 72.3021471,35.8 72.1490712,36 C72.0980459,36.05 72.1745838,36.2 72.2000965,36.325 L72.2766345,36.325 L72.2766345,36.375 L72.0470206,36.45 C71.9959952,36.375 71.6898434,36.225 71.6898434,36.1 L71.6898434,37.375 C71.9449699,37.45 71.9449699,37.8 72.0470206,37.975 C72.0980459,37.9 72.1235585,37.85 72.1490712,37.775 L72.1745838,37.8 C72.1490712,37.95 72.1235585,38.1 72.0725332,38.25 C72.0215079,38.475 71.9704826,38.675 71.9449699,38.9 C71.9449699,38.925 71.9959952,38.975 71.9959952,39 C71.715356,39.625 71.868432,40.325 71.7663814,40.975 C71.6898434,41.45 71.7663814,41.95 71.715356,42.45 C71.6643307,42.875 71.5622801,43.325 71.4602295,43.75 C71.4347168,43.825 71.3836915,43.85 71.2561282,43.9 C71.3071536,43.6 71.2816409,43.4 71.2306156,43.125 C71.2051029,43.125 70.8734384,42.95 70.8479258,42.95 C70.8479258,43.3 71.052027,43.775 71.128565,44.175 C71.052027,44.15 70.7458751,43.975 70.7203625,43.975 C70.6693372,44.275 70.6693372,44.675 70.6438245,45 C70.6183119,45.25 70.388698,45.475 70.3631853,45.75 C70.3631853,45.9 70.5417739,46 70.5162612,46.25 L70.7203625,46.25 C70.7203625,45.75 70.9499764,45.3 70.9499764,44.775 L71.0265143,44.775 C71.052027,44.825 71.128565,44.875 71.1030523,44.9 C71.052027,45.175 70.9499764,45.475 70.975489,45.75 C70.975489,45.9 71.1030523,46.05 71.052027,46.225 C71.0010017,46.375 70.975489,46.525 70.9499764,46.75 C70.9244637,46.625 70.8989511,46.575 70.8989511,46.5 C70.8734384,46.5 70.6438245,46.475 70.6183119,46.475 C70.5927992,46.625 70.7969004,46.775 70.7713878,46.9 C70.7458751,46.925 70.7203625,46.925 70.6693372,46.95 L69.8274195,45.75 C69.1640905,44.8 68.5007614,43.85 67.8374324,42.875 C67.6588438,42.625 67.5057679,42.375 67.3782046,42.125 C66.5873123,40.8 65.719882,39.525 64.7504011,38.3 C64.0105341,37.375 63.423743,36.375 62.7349013,35.4 C62.0970849,34.475 61.4592685,33.575 60.8214521,32.65 C60.5918382,32.35 60.311199,32.075 60.1070978,31.75 C59.4437687,30.725 58.8569777,29.675 58.1936486,28.65 C57.6323702,27.8 57.0200665,26.975 56.4332754,26.15 C56.2291741,25.875 56.0250729,25.575 55.8209717,25.275 C55.795459,25.225 55.7699463,25.175 55.7699463,25.1 C55.718921,24.55 55.6678957,24 55.6423831,23.475 C55.6423831,22.975 55.6934084,22.475 55.6934084,21.95 L55.6934084,21.5 C55.6934084,21.375 55.718921,21.275 55.718921,21.15 C55.7444337,21.125 55.7699463,21.075 55.795459,21.05 C55.055592,21.05 54.2902123,21.025 53.5503453,21.05 C53.0656049,21.075 52.8104783,20.875 52.4788138,20.525 C51.5093329,19.45 50.7949785,18.225 49.9530609,17.075 C49.1621686,15.975 48.3457636,14.9 47.5293586,13.825 C46.8660296,12.95 46.2027005,12.1 45.5393715,11.225 C44.7995045,10.225 44.0851501,9.225 43.3197704,8.225 C42.4013148,7.025 41.4573466,5.825 40.5133783,4.625 C40.0796632,4.075 39.5949227,3.55 39.1101823,2.975 C39.4418468,3.025 39.7479987,3.075 40.0541505,3.1 L41.278758,3.175 C42.1972136,3.25 43.1156692,3.3 44.0341248,3.425 C44.7995045,3.525 45.5648841,3.675 46.3557765,3.8 C48.0396117,4.075 49.6979343,4.525 51.3052316,5.05 C52.2491999,5.35 53.1676555,5.75 54.0861111,6.125 C56.1526362,6.95 58.1171106,7.95 60.0560725,9 C60.6683762,9.325 61.0255534,9.85 61.4847812,10.325 C62.1481102,11 62.8114393,11.675 63.4492557,12.375 C64.1891227,13.2 64.8779644,14.05 65.5923187,14.9 C66.2301351,15.65 66.8934641,16.4 67.5312805,17.15 C67.7353818,17.375 67.8884577,17.65 68.0670463,17.9 C68.4752488,18.5 68.9344766,19.075 69.2916538,19.725 C69.5467803,20.2 69.6998563,20.75 69.8784448,21.275 C70.1335714,22.05 70.388698,22.8 70.6438245,23.575 C70.8224131,24.15 70.975489,24.75 71.1030523,25.35 C71.2051029,25.75 71.1795903,26.175 71.3071536,26.575 C71.4602295,27.1 71.3071536,27.675 71.4602295,28.2 C71.4857421,28.25 71.5112548,28.325 71.5367675,28.375 C71.6388181,28.475 71.715356,28.575 71.5622801,28.725 C71.5367675,28.75 71.5367675,28.85 71.5622801,28.925 C71.6133054,28.875 71.6388181,28.825 71.6898434,28.75 C71.6898434,28.8 71.715356,28.825 71.715356,28.85 C71.715356,28.95 71.6898434,29.05 71.715356,29.15 C71.715356,29.2 71.7663814,29.275 71.791894,29.325 C71.8429193,29.275 71.8939446,29.25 71.9959952,29.175 C72.2256091,30.025 72.2511218,30.875 72.2511218,31.75 C72.2511218,32.575 72.4041977,33.4 72.0470206,34.2 C72.1235585,33.925 71.9449699,33.675 72.0215079,33.425 L72.0215079,33.425 Z" id="Shape"></path>
                    </g>
                </g>
            </g>
        </g>
    </g>
</svg>
